<svg width="24" height="24" viewBox="0 0 24 24" fill="none" xmlns="http://www.w3.org/2000/svg">
<g clip-path="url(#clip0_214_445)">
<path fill-rule="evenodd" clip-rule="evenodd" d="M22.2422 4.26562L22.5469 4.37344C22.7156 4.43438 22.9453 4.54687 23.0625 4.62656C23.1797 4.70156 23.3625 4.87031 23.475 4.99687C23.5875 5.12344 23.7188 5.32031 23.775 5.4375C23.8266 5.55469 23.9016 5.74219 23.9344 5.85938C23.9859 6.03281 24 7.11563 24 11.9766C24 16.7578 23.9859 17.9297 23.9344 18.1172C23.9016 18.2437 23.8172 18.4641 23.7516 18.6C23.6813 18.7312 23.5453 18.9328 23.4469 19.0406C23.3531 19.1484 23.1656 19.3031 23.0391 19.3828C22.9078 19.4672 22.6781 19.5797 22.2422 19.7344H12C2.18906 19.7344 1.74844 19.7297 1.52344 19.65C1.39219 19.6031 1.20469 19.5234 1.10156 19.4766C0.998438 19.425 0.7875 19.2609 0.632812 19.1016C0.473437 18.9469 0.3 18.7125 0.239062 18.5859C0.178125 18.4547 0.0984375 18.2578 0.065625 18.1406C0.0140625 17.9672 0 16.8844 0 12.0234C0 7.3125 0.0140625 6.07031 0.0609375 5.88281C0.09375 5.75156 0.173438 5.54062 0.234375 5.41406C0.295312 5.28281 0.473437 5.05313 0.628125 4.89844C0.7875 4.73906 0.998438 4.575 1.10156 4.52344C1.20469 4.47656 1.38281 4.40156 1.5 4.35469C1.69687 4.27969 2.36719 4.275 22.2422 4.26562ZM6.44531 7.42031C6.29063 7.50469 6.00938 7.725 5.8125 7.92188C5.60156 8.12812 5.39531 8.39062 5.31094 8.55469C5.22656 8.70937 5.11875 9.00469 5.0625 9.21094C5.01094 9.41719 4.96875 9.7125 4.96875 9.86719C4.96875 10.0219 5.00156 10.2984 5.03906 10.4766C5.07656 10.6547 5.17031 10.9313 5.24531 11.0859C5.31563 11.2406 5.44688 11.4656 5.53594 11.5828L5.69531 11.7984C5.5125 11.8875 5.29219 12.0234 5.08594 12.1641C4.87969 12.3 4.55156 12.5672 4.35938 12.7547C4.16719 12.9469 3.88594 13.2797 3.74063 13.5C3.59531 13.7203 3.40781 14.0437 3.32812 14.2266C3.24375 14.4094 3.12656 14.7563 3.06563 15C3 15.2437 2.93438 15.6469 2.92031 15.8906C2.89687 16.2844 2.90625 16.3594 2.99531 16.5375C3.06563 16.6781 3.15 16.7578 3.29062 16.8281C3.4875 16.9172 3.6 16.9219 7.78125 16.9219C11.9578 16.9219 12.075 16.9172 12.2719 16.8281C12.4125 16.7578 12.4969 16.6781 12.5672 16.5375C12.6562 16.3594 12.6656 16.2891 12.6422 15.8906C12.6234 15.6469 12.5719 15.2766 12.5203 15.0703C12.4688 14.8641 12.3562 14.5266 12.2719 14.3203C12.1875 14.1141 11.9906 13.7531 11.8359 13.5234C11.6812 13.2937 11.4 12.9469 11.2172 12.7641C11.0297 12.5766 10.7016 12.3094 10.4906 12.1688C10.275 12.0281 10.05 11.8875 9.98438 11.8594L9.86719 11.7984C10.1156 11.4656 10.2469 11.2406 10.3172 11.0859C10.3922 10.9313 10.4859 10.6547 10.5234 10.4766C10.5609 10.2984 10.5938 10.0219 10.5938 9.86719C10.5938 9.7125 10.5516 9.41719 10.5 9.21094C10.4438 9.00469 10.3359 8.70937 10.2516 8.55469C10.1672 8.39062 9.95625 8.12344 9.75 7.92188C9.54844 7.71563 9.28125 7.50469 9.11719 7.42031C8.9625 7.33594 8.66719 7.22813 8.46094 7.17188C8.24531 7.12031 7.94531 7.07812 7.75781 7.07812C7.57969 7.08281 7.27031 7.125 7.07812 7.17656C6.88594 7.22813 6.6 7.33594 6.44531 7.42031ZM14.4609 7.19531C14.3578 7.25625 14.2359 7.37812 14.1937 7.4625C14.1516 7.54687 14.1141 7.6875 14.1094 7.76719C14.1094 7.85156 14.1516 8.00625 14.2031 8.10938C14.2656 8.23438 14.3594 8.32812 14.4844 8.39062C14.6672 8.47969 14.7656 8.48438 17.625 8.48438C20.4844 8.48438 20.5828 8.47969 20.7656 8.39062C20.8906 8.32812 20.9844 8.23438 21.0469 8.10938C21.0984 8.00625 21.1406 7.86094 21.1406 7.78125C21.1406 7.70156 21.0984 7.55625 21.0469 7.45312C20.9844 7.32812 20.8906 7.23438 20.7656 7.17188C20.5828 7.08281 20.4844 7.07812 17.6109 7.07812H14.6484L14.4609 7.19531ZM14.4609 10.0078C14.3578 10.0734 14.2359 10.1906 14.1937 10.2797C14.1516 10.3641 14.1141 10.5 14.1094 10.5844C14.1094 10.6688 14.1516 10.8141 14.1984 10.9125C14.25 11.0156 14.3625 11.1328 14.4656 11.1938L14.6484 11.2969C20.4844 11.3016 20.5828 11.2969 20.7656 11.2078C20.8906 11.1453 20.9844 11.0516 21.0469 10.9266C21.0984 10.8234 21.1406 10.6734 21.1406 10.5984C21.1406 10.5188 21.0984 10.3734 21.0469 10.2703C20.9844 10.1453 20.8906 10.0516 20.7656 9.98906C20.5828 9.89531 20.4844 9.89531 17.6109 9.89531H14.6484L14.4609 10.0078ZM14.4609 12.8203C14.3578 12.8813 14.2359 13.0031 14.1937 13.0875C14.1516 13.1719 14.1141 13.3125 14.1094 13.3969C14.1094 13.4766 14.1516 13.6266 14.1984 13.725C14.25 13.8234 14.3625 13.9406 14.4656 14.0016L14.6484 14.1047C20.4844 14.1094 20.5828 14.1047 20.7656 14.0156C20.8906 13.9531 20.9844 13.8594 21.0469 13.7344C21.0984 13.6313 21.1406 13.4859 21.1406 13.4062C21.1406 13.3313 21.0984 13.1812 21.0469 13.0781C20.9844 12.9531 20.8906 12.8594 20.7656 12.7969C20.5828 12.7078 20.4844 12.7031 17.6109 12.7031H14.6484L14.4609 12.8203ZM14.4609 15.6328C14.3578 15.6984 14.2359 15.8156 14.1937 15.9047C14.1516 15.9891 14.1141 16.125 14.1094 16.2094C14.1094 16.2937 14.1516 16.4391 14.1984 16.5375C14.25 16.6406 14.3625 16.7578 14.4656 16.8187C14.6438 16.9172 14.6859 16.9219 16.2094 16.9219C17.6719 16.9266 17.775 16.9172 17.9531 16.8328C18.0781 16.7703 18.1719 16.6766 18.2344 16.5516C18.2859 16.4484 18.3281 16.2984 18.3281 16.2234C18.3281 16.1438 18.2859 15.9984 18.2344 15.8953C18.1719 15.7703 18.0781 15.6766 17.9531 15.6141C17.775 15.525 17.6719 15.5203 16.2047 15.5203H14.6484L14.4609 15.6328ZM7.875 8.50312C8.06719 8.51719 8.26875 8.56875 8.41406 8.64375C8.54062 8.70469 8.71875 8.84062 8.80781 8.93906C8.89687 9.0375 9.01406 9.21094 9.06562 9.32812C9.13594 9.48281 9.16406 9.6375 9.16406 9.89062C9.16406 10.1438 9.13594 10.2984 9.06562 10.4531C9.01406 10.5703 8.89687 10.7438 8.80781 10.8422C8.71875 10.9453 8.53125 11.0813 8.39062 11.1469C8.17969 11.25 8.06719 11.2734 7.78125 11.2734C7.49531 11.2734 7.38281 11.25 7.17188 11.1469C7.03125 11.0813 6.84375 10.9453 6.75469 10.8422C6.66563 10.7438 6.55312 10.5703 6.50156 10.4531C6.45 10.3359 6.39844 10.1484 6.38906 10.0312C6.375 9.91406 6.38437 9.71719 6.41719 9.58594C6.44531 9.45937 6.52969 9.25781 6.6 9.14062C6.67031 9.02344 6.81094 8.86875 6.91406 8.78906C7.0125 8.71406 7.20469 8.61094 7.33125 8.56406C7.50469 8.50312 7.65469 8.48906 7.875 8.50312ZM7.89844 12.7687C8.38594 12.7828 8.51719 12.8016 8.88281 12.9328C9.1125 13.0125 9.41719 13.1484 9.55781 13.2328C9.69844 13.3125 9.96094 13.5188 10.1391 13.6875C10.3172 13.8562 10.5516 14.1281 10.6641 14.2969C10.7766 14.4656 10.9172 14.7281 10.9828 14.8828C11.0484 15.0375 11.1141 15.2437 11.1562 15.5156H4.40625L4.43437 15.3422C4.44844 15.2437 4.51406 15.0375 4.57969 14.8828C4.64531 14.7281 4.77188 14.4844 4.86563 14.3438C4.95469 14.2031 5.1375 13.9734 5.26875 13.8328C5.4 13.6969 5.64375 13.4859 5.8125 13.3688C5.98125 13.2469 6.25313 13.0922 6.42188 13.0219C6.59062 12.9516 6.8625 12.8625 7.03125 12.825C7.2375 12.7781 7.51406 12.7594 7.89844 12.7687Z" fill="#3C9701"/>
</g>
<defs>
<clipPath id="clip0_214_445">
<rect width="24" height="24" fill="white"/>
</clipPath>
</defs>
</svg>
