<svg width="274" height="68" viewBox="0 0 274 68" fill="none" xmlns="http://www.w3.org/2000/svg">
<path d="M51.4979 14.2522H29.5869V53.7477H51.4979V14.2522Z" fill="#FF5F00"/>
<path d="M30.9824 34C30.9824 25.9753 34.7505 18.8577 40.5422 14.2522C36.2857 10.9028 30.9126 8.87915 25.0511 8.87915C11.2346 8.87915 0 20.1137 0 34C0 47.8862 11.2346 59.1208 25.0511 59.1208C30.9126 59.1208 36.2857 57.0972 40.5422 53.7477C34.7505 49.212 30.9824 42.0247 30.9824 34Z" fill="#EB001B"/>
<path d="M78.7121 49.5609V48.7236H79.061V48.584H78.2236V48.7236H78.5725V49.5609H78.7121ZM80.317 49.5609V48.584H80.0379L79.7588 49.2818L79.4797 48.584H79.2006V49.5609H79.4099V48.7933L79.689 49.4214H79.8984L80.1775 48.7933V49.5609H80.317Z" fill="#F79E1B"/>
<path d="M81.0847 34C81.0847 47.8862 69.8501 59.1208 56.0337 59.1208C50.1721 59.1208 44.7991 57.0972 40.5425 53.7477C46.404 49.1423 50.1023 42.0247 50.1023 34C50.1023 25.9753 46.3342 18.8577 40.5425 14.2522C44.7991 10.9028 50.1721 8.87915 56.0337 8.87915C69.9199 8.87915 81.0847 20.1835 81.0847 34Z" fill="#F79E1B"/>
<path d="M108.084 68H107.084V57.4574V18.9182V0H108.084V3.9242V39.3006V68Z" fill="white"/>
<path d="M147.064 39.3382C147.343 39.7569 147.692 40.1058 148.11 40.3849L154.879 44.2926C155.298 44.5717 155.786 44.6415 156.275 44.6415C156.763 44.6415 157.252 44.502 157.67 44.2926L164.439 40.3849C164.858 40.1058 165.207 39.7569 165.486 39.3382C165.765 38.9195 165.835 38.4311 165.835 37.9426V30.1272C165.835 29.6388 165.695 29.1503 165.486 28.7316C165.207 28.313 164.858 27.9641 164.439 27.6849L157.67 23.7772C157.252 23.4981 156.763 23.4283 156.275 23.4283C155.786 23.4283 155.298 23.5679 154.879 23.7772L148.11 27.6849C147.692 27.9641 147.343 28.313 147.064 28.7316C146.785 29.1503 146.715 29.6388 146.715 30.1272V37.9426C146.715 38.4311 146.854 38.9195 147.064 39.3382Z" fill="white"/>
<path d="M157.74 23.7075L164.508 27.6151C164.927 27.8942 165.276 28.2431 165.555 28.6618L177.767 21.614C177.278 20.7767 176.58 20.0091 175.673 19.5206L159.135 9.96076C158.228 9.4723 157.251 9.19318 156.274 9.19318V23.3586C156.833 23.2888 157.321 23.4283 157.74 23.7075Z" fill="#4D7F72"/>
<path d="M177.837 21.6141L165.625 28.6618C165.905 29.0805 165.974 29.569 165.974 30.0575V37.8728C165.974 38.3613 165.835 38.8498 165.625 39.2684L177.837 46.3162C178.325 45.4789 178.605 44.5019 178.605 43.4552V24.3355C178.605 23.4284 178.325 22.4514 177.837 21.6141Z" fill="#25534D"/>
<path d="M164.509 40.3849L157.74 44.2926C157.321 44.5717 156.833 44.6415 156.344 44.6415V58.8068C157.321 58.8068 158.298 58.5277 159.205 58.0393L175.743 48.4794C176.65 47.9909 177.348 47.2234 177.837 46.386L165.625 39.3382C165.346 39.7569 164.997 40.1058 164.509 40.3849Z" fill="#7AA6AD"/>
<path d="M148.11 40.3849C147.692 40.1058 147.343 39.7569 147.064 39.3382L134.852 46.386C135.341 47.2234 136.038 47.9909 136.945 48.4794L153.483 58.0393C154.39 58.5277 155.367 58.8068 156.344 58.8068V44.6415C155.856 44.6415 155.367 44.5019 154.949 44.2926L148.11 40.3849Z" fill="#468B07"/>
<path d="M146.715 37.9426V30.1272C146.715 29.6388 146.854 29.1503 147.064 28.7316L134.852 21.6838C134.364 22.5212 134.084 23.4981 134.084 24.5448V43.6646C134.084 44.7113 134.364 45.6882 134.852 46.5256L147.064 39.4778C146.854 38.9195 146.715 38.4311 146.715 37.9426Z" fill="#93D50A"/>
<path d="M147.064 39.3382L134.852 46.386L147.064 39.3382Z" fill="#93D50A"/>
<path d="M148.11 27.6151L154.879 23.7075C155.298 23.4283 155.786 23.3586 156.274 23.3586V9.19318C155.298 9.19318 154.321 9.4723 153.414 9.96076L136.876 19.5206C135.968 20.0091 135.271 20.7767 134.782 21.614L146.994 28.6618C147.343 28.2431 147.692 27.8942 148.11 27.6151Z" fill="#2C6A04"/>
<path d="M156.973 32.9882C157.461 32.8486 157.88 32.5695 158.159 32.0811C158.578 31.3135 158.578 30.3365 158.019 29.7085C157.182 28.592 155.507 28.592 154.67 29.7085C154.112 30.4063 154.112 31.3833 154.53 32.0811C154.809 32.5695 155.228 32.8486 155.717 32.9882L154.53 38.3613C154.461 38.7102 154.74 39.0591 155.089 39.0591H157.67C158.019 39.0591 158.299 38.7102 158.229 38.3613L156.973 32.9882Z" fill="#255448"/>
<path d="M201.074 24.8937V37.4541C201.074 39.5475 200.446 41.2222 199.12 42.4085C197.794 43.5947 196.119 44.2228 194.026 44.2228C192.002 44.2228 190.328 43.5947 189.002 42.4085C187.676 41.2222 187.048 39.5475 187.048 37.4541V24.8937H190.048V37.4541C190.048 38.7799 190.397 39.8266 191.165 40.5942C191.863 41.3618 192.84 41.7107 194.026 41.7107C195.282 41.7107 196.259 41.3618 196.957 40.5942C197.724 39.8266 198.073 38.7799 198.073 37.4541V24.8937H201.074Z" fill="white"/>
<path d="M207.075 29.7783L207.284 31.8019C207.773 31.1041 208.331 30.5458 209.029 30.1272C209.727 29.7085 210.494 29.4991 211.401 29.4991C212.867 29.4991 213.983 29.9876 214.82 30.8947C215.658 31.8019 216.007 33.1975 216.007 35.1513V43.9436H212.867V35.1513C212.867 34.0349 212.657 33.2673 212.239 32.7788C211.82 32.2904 211.192 32.081 210.355 32.081C209.657 32.081 209.099 32.2206 208.61 32.4997C208.122 32.7788 207.703 33.1277 207.424 33.5464V43.9436H204.284V29.7783H207.075Z" fill="white"/>
<path d="M222.078 41.292H231.009V43.9437H218.868V25.0333H222.078V41.292Z" fill="white"/>
<path d="M232.056 36.7563C232.056 34.6629 232.614 32.9184 233.8 31.5926C234.986 30.2668 236.522 29.569 238.545 29.569C240.569 29.569 242.174 30.2668 243.36 31.5926C244.546 32.9184 245.105 34.6629 245.105 36.7563V37.0354C245.105 39.1986 244.546 40.8733 243.36 42.2689C242.174 43.5948 240.639 44.2926 238.615 44.2926C236.591 44.2926 234.986 43.5948 233.87 42.2689C232.684 40.9431 232.125 39.1986 232.125 37.1052V36.7563H232.056ZM235.266 37.0354C235.266 38.431 235.545 39.5475 236.103 40.3849C236.661 41.2222 237.499 41.7107 238.615 41.7107C239.731 41.7107 240.569 41.292 241.127 40.3849C241.685 39.5475 241.964 38.3612 241.964 37.0354V36.7563C241.964 35.4305 241.685 34.314 241.127 33.4069C240.569 32.4997 239.731 32.0811 238.615 32.0811C237.499 32.0811 236.661 32.4997 236.103 33.4069C235.545 34.314 235.266 35.4305 235.266 36.7563V37.0354Z" fill="white"/>
<path d="M253.059 41.7107C253.757 41.7107 254.385 41.5013 254.874 41.0129C255.362 40.5942 255.641 39.9662 255.641 39.2684H258.502V39.3381C258.502 40.664 258.014 41.7804 256.897 42.7574C255.781 43.7343 254.525 44.2228 252.99 44.2228C250.966 44.2228 249.361 43.525 248.245 42.1991C247.128 40.8733 246.57 39.1288 246.57 37.1052V36.6167C246.57 34.5931 247.128 32.8486 248.245 31.5228C249.361 30.1969 250.896 29.4991 252.99 29.4991C254.664 29.4991 255.99 29.9876 257.037 30.9645C258.084 31.9415 258.572 33.1975 258.502 34.7327V34.8024H255.641C255.641 34.0349 255.432 33.337 254.943 32.8486C254.455 32.3601 253.827 32.0112 253.059 32.0112C251.943 32.0112 251.106 32.4299 250.617 33.3371C250.129 34.2442 249.849 35.2909 249.849 36.6167V37.1052C249.849 38.431 250.129 39.5475 250.617 40.3848C251.106 41.2222 251.873 41.7107 253.059 41.7107Z" fill="white"/>
<path d="M265.341 37.7332L264.015 39.408V43.9437H260.875V23.9866H264.015V35.2212L268.97 29.7783H272.668L267.644 35.7096L273.226 43.9437H269.528L265.341 37.7332Z" fill="white"/>
</svg>
